<svg xmlns="http://www.w3.org/2000/svg" width="24" height="24" viewBox="0 0 24 24">
    <defs>
        <filter id="prefix__a" width="101.6%" height="135%" x="-.8%" y="-17.5%" filterUnits="objectBoundingBox">
            <feOffset dy="1" in="SourceAlpha" result="shadowOffsetOuter1"/>
            <feGaussianBlur in="shadowOffsetOuter1" result="shadowBlurOuter1" stdDeviation="2"/>
            <feColorMatrix in="shadowBlurOuter1" result="shadowMatrixOuter1" values="0 0 0 0 0.196078431 0 0 0 0 0.196078431 0 0 0 0 0.196078431 0 0 0 0.15 0"/>
            <feMerge>
                <feMergeNode in="shadowMatrixOuter1"/>
                <feMergeNode in="SourceGraphic"/>
            </feMerge>
        </filter>
    </defs>
    <g fill="#9299A3" fill-rule="evenodd" filter="url(#prefix__a)" transform="translate(-1149 -18)">
        <path d="M1161 21c4.97 0 9 4.03 9 9s-4.03 9-9 9-9-4.03-9-9 4.03-9 9-9zm0 1.636c-4.067 0-7.364 3.297-7.364 7.364s3.297 7.364 7.364 7.364 7.364-3.297 7.364-7.364-3.297-7.364-7.364-7.364zm.579 3.513l3.85 3.851-3.85 3.851-1.158-1.157 1.876-1.876h-5.388v-1.636h5.388l-1.876-1.876 1.158-1.157z"/>
    </g>
</svg>
