<svg xmlns="http://www.w3.org/2000/svg" width="20" height="20" viewBox="0 0 20 20">
    <path fill="#1A1A1A" fill-rule="evenodd" d="M10.682 9.722v4.343l1.563-1.559.964.962L10 16.667l-3.21-3.2.965-.96 1.563 1.558V9.722h1.364zM10 4.167c2.154 0 4.006 1.462 4.586 3.508 1.648.244 2.914 1.69 2.914 3.436 0 1.918-1.526 3.472-3.41 3.472v-1.389c1.13 0 2.046-.932 2.046-2.083 0-1.15-.915-2.083-2.045-2.083h-.043l-.589.012-.097-.591c-.273-1.66-1.69-2.893-3.362-2.893-1.232 0-2.35.67-2.955 1.738l-.188.332-.375.015c-1.46.058-2.618 1.283-2.618 2.776 0 1.294.869 2.382 2.045 2.69v1.419c-1.935-.33-3.409-2.045-3.409-4.11 0-2.111 1.546-3.865 3.559-4.131C6.938 4.975 8.4 4.167 10 4.167z"/>
</svg>
