<svg xmlns="http://www.w3.org/2000/svg" width="20" height="20" viewBox="0 0 20 20">
    <defs>
        <filter id="prefix__a" width="102.7%" height="116.9%" x="-1.4%" y="-8.5%" filterUnits="objectBoundingBox">
            <feOffset dy="1" in="SourceAlpha" result="shadowOffsetOuter1"/>
            <feGaussianBlur in="shadowOffsetOuter1" result="shadowBlurOuter1" stdDeviation="2"/>
            <feColorMatrix in="shadowBlurOuter1" result="shadowMatrixOuter1" values="0 0 0 0 0.196078431 0 0 0 0 0.196078431 0 0 0 0 0.196078431 0 0 0 0.15 0"/>
            <feMerge>
                <feMergeNode in="shadowMatrixOuter1"/>
                <feMergeNode in="SourceGraphic"/>
            </feMerge>
        </filter>
    </defs>
    <g fill="#9299A3" fill-rule="evenodd" filter="url(#prefix__a)" transform="translate(-36 -68)">
        <path d="M47.95 71.5c2.513 0 4.55 2.037 4.55 4.55s-2.037 4.55-4.55 4.55h-1.3v1.3h-1.3v1.3h-1.3v1.3H39.5v-3.52l3.996-3.995c-.064-.305-.096-.618-.096-.935 0-2.513 2.037-4.55 4.55-4.55zm0 1.3c-1.795 0-3.25 1.455-3.25 3.25 0 .324.047.641.14.944l.112.373L40.8 81.52V83.2h1.95v-1.3h1.3v-1.3h1.3v-1.3h2.6c1.795 0 3.25-1.455 3.25-3.25s-1.455-3.25-3.25-3.25zm0 1.95c.718 0 1.3.582 1.3 1.3 0 .718-.582 1.3-1.3 1.3-.718 0-1.3-.582-1.3-1.3 0-.718.582-1.3 1.3-1.3z"/>
    </g>
</svg>
