<svg xmlns="http://www.w3.org/2000/svg" width="28" height="28" viewBox="0 0 28 28">
    <path fill="#9299A3" fill-rule="evenodd" d="M18.142 4.667c.61 0 1.196.244 1.624.675l2.894 2.894c.431.43.673 1.015.673 1.625 0 .61-.242 1.194-.673 1.624L12.094 22.05c-.652.752-1.576 1.214-2.635 1.287H4.667v-.934l.003-3.934c.08-.984.537-1.9 1.235-2.514l10.61-10.611c.431-.433 1.016-.676 1.627-.676zm-3.86 5.549l-7.099 7.097c-.378.334-.612.802-.65 1.23v2.926l2.86.002c.499-.035.963-.267 1.335-.693l7.058-7.058-3.504-3.504zm3.86-3.683c-.114 0-.223.046-.303.126l-2.237 2.237 3.504 3.504 2.234-2.234c.081-.081.127-.19.127-.305 0-.115-.046-.224-.127-.305l-2.896-2.897c-.08-.08-.189-.126-.302-.126z"/>
</svg>
