<svg xmlns="http://www.w3.org/2000/svg" width="125" height="51" viewBox="0 0 125 51">
    <defs>
        <linearGradient id="prefix__b" x1="-5.939%" x2="110.213%" y1="46.345%" y2="58.099%">
            <stop offset="2%" stop-color="#FB050F"/>
            <stop offset="25%" stop-color="#9D051F"/>
            <stop offset="55%" stop-color="#5B304B"/>
            <stop offset="85%" stop-color="#1C5975"/>
            <stop offset="100%" stop-color="#036985"/>
        </linearGradient>
        <linearGradient id="prefix__c" x1="48.481%" x2="52.82%" y1="16.531%" y2="95.98%">
            <stop offset="0%" stop-color="#FB050F"/>
            <stop offset="16%" stop-color="#BE212F"/>
            <stop offset="44%" stop-color="#595063"/>
            <stop offset="64%" stop-color="#196E83"/>
            <stop offset="73%" stop-color="#007990"/>
            <stop offset="82%" stop-color="#046E87"/>
            <stop offset="98%" stop-color="#0F516F"/>
            <stop offset="100%" stop-color="#104D6C"/>
        </linearGradient>
        <linearGradient id="prefix__d" x1="11.968%" x2="95.432%" y1="49.787%" y2="64.707%">
            <stop offset="0%" stop-color="#FB050F"/>
            <stop offset="16%" stop-color="#BE212F"/>
            <stop offset="44%" stop-color="#595063"/>
            <stop offset="64%" stop-color="#196E83"/>
            <stop offset="73%" stop-color="#007990"/>
            <stop offset="82%" stop-color="#046E87"/>
            <stop offset="98%" stop-color="#0F516F"/>
            <stop offset="100%" stop-color="#104D6C"/>
        </linearGradient>
        <filter id="prefix__a" width="101.6%" height="135%" x="-.8%" y="-17.5%" filterUnits="objectBoundingBox">
            <feOffset dy="1" in="SourceAlpha" result="shadowOffsetOuter1"/>
            <feGaussianBlur in="shadowOffsetOuter1" result="shadowBlurOuter1" stdDeviation="2"/>
            <feColorMatrix in="shadowBlurOuter1" result="shadowMatrixOuter1" values="0 0 0 0 0.196078431 0 0 0 0 0.196078431 0 0 0 0 0.196078431 0 0 0 0.15 0"/>
            <feMerge>
                <feMergeNode in="shadowMatrixOuter1"/>
                <feMergeNode in="SourceGraphic"/>
            </feMerge>
        </filter>
    </defs>
    <g fill="none" filter="url(#prefix__a)" transform="translate(-47 -5)">
        <g>
            <path fill="url(#prefix__b)" d="M20.817 5.46c-.457-.07-2.022-.323-2.49-.358C13.335 4.714 8.383 6.244 4.48 9.38c-.718.558-1.396 1.167-2.029 1.82-.3-2.016-.29-4.066.03-6.079 2.5-3.4 6.57-5.277 10.78-4.974 2.279.234 6.311 1.903 7.556 5.313z" transform="translate(55 13)"/>
            <path fill="url(#prefix__c)" d="M12.726.115c8.82.273 14.076 6.888 11.788 14.463-1.329 4.588 5.531 8.794 4.227 12.513-.86 2.449-3.961 2.589-7.668.972 0 0-4.633-5.15-1.068-14.855C21.28 9.887 23.365 2.293 12.726.115z" transform="translate(55 13)"/>
            <path fill="url(#prefix__d)" d="M28.862 26.21c.14.687-1.289 7.412-8.556 8.251C10.11 35.055 1.715 26.734.258 17.986.062 16.824-.484 9.454 2.474 5.13c-.32 2.02-.328 4.078-.027 6.101.494 3.473 1.922 6.745 4.133 9.468 1.07 1.336 2.31 2.528 3.686 3.545 2.978 2.197 6.514 3.511 10.203 3.793 2.926.225 6.796-.837 8.393-1.827z" transform="translate(55 13)"/>
            <g fill="#000">
                <path d="M5.14 1.729l-.76.501c-.12-.246-.291-.465-.5-.642-.28-.204-.619-.308-.964-.296-.381-.017-.754.114-1.041.366-.266.245-.412.595-.398.957-.004.283.113.554.32.746.268.23.572.413.9.54l.823.36c.61.265 1.05.535 1.324.81.412.41.635.973.616 1.554.027.715-.253 1.407-.77 1.902-.524.493-1.223.756-1.942.733-.77 0-1.39-.231-1.863-.693C.478 8.149.2 7.62.088 7.049l.926-.256c.05.41.23.792.513 1.092.33.32.776.493 1.235.476.547 0 .97-.165 1.271-.496.299-.327.459-.758.447-1.201.015-.38-.14-.746-.42-1.002-.164-.154-.505-.352-1.029-.591l-.77-.36c-.416-.17-.802-.407-1.144-.7-.387-.361-.603-.87-.592-1.4-.022-.607.225-1.192.675-1.6C1.677.594 2.296.375 2.929.4c.936-.032 1.803.493 2.21 1.336V1.73zM14.225.533L14.225 1.434 10.725 1.434 10.725 3.977 14.119 3.977 14.119 4.878 10.73 4.878 10.73 8.207 14.23 8.207 14.23 9.1 9.779 9.1 9.779.533zM24.276 9.1l-1.002-2.416h-3.65L18.594 9.1h-1.053L21.487.116 25.33 9.1h-1.054zm-4.28-3.315h2.905l-1.44-3.432-1.465 3.432zM29.789 9.1L28.809 9.1 30.24.057 33.53 7.294 36.89.045 38.22 9.1 37.24 9.1 36.429 3.137 33.516 9.465 30.638 3.143zM42.77.533L43.721.533 43.721 8.207 46.085 8.207 46.085 9.1 42.77 9.1zM54.387.533L54.387 1.434 50.887 1.434 50.887 3.977 54.281 3.977 54.281 4.878 50.891 4.878 50.891 8.207 54.391 8.207 54.391 9.1 49.941 9.1 49.941.533zM63.294 1.729l-.759.501c-.12-.246-.291-.465-.501-.642-.279-.204-.618-.308-.963-.296-.381-.017-.755.114-1.042.366-.265.246-.41.595-.397.957-.004.283.112.554.32.746.267.23.572.413.9.54l.822.36c.61.265 1.051.535 1.325.81.412.41.635.973.617 1.554.026.715-.255 1.407-.771 1.902-.525.494-1.225.757-1.945.733-.77 0-1.393-.231-1.865-.693-.406-.419-.682-.946-.795-1.518l.925-.256c.052.41.232.792.516 1.092.328.321.774.494 1.233.476.547 0 .971-.165 1.273-.496.299-.327.46-.758.449-1.201.015-.38-.14-.746-.42-1.002-.162-.154-.505-.351-1.028-.591l-.771-.36c-.416-.17-.802-.407-1.144-.7-.387-.361-.603-.87-.592-1.4-.024-.61.225-1.2.679-1.609.477-.417 1.096-.635 1.729-.61.487-.013.966.122 1.375.385.355.24.641.568.83.952zM72.52 1.729l-.757.501c-.122-.246-.293-.464-.502-.642-.279-.204-.619-.308-.964-.296-.381-.017-.754.114-1.04.366-.267.245-.412.595-.4.957-.003.283.114.555.323.746.266.23.57.413.898.54l.824.36c.607.265 1.048.535 1.323.81.412.41.635.973.617 1.554.026.715-.255 1.407-.771 1.902-.524.493-1.222.756-1.94.733-.773 0-1.394-.231-1.864-.693-.408-.418-.684-.945-.797-1.518l.924-.256c.052.41.232.792.515 1.092.329.321.775.494 1.234.476.549 0 .973-.165 1.272-.496.3-.327.46-.758.45-1.201.014-.38-.14-.746-.42-1.002-.163-.154-.505-.351-1.028-.591l-.771-.36c-.416-.171-.802-.407-1.144-.7-.387-.361-.602-.87-.59-1.4-.024-.607.224-1.193.674-1.6.45-.408 1.026-.612 1.728-.61.487-.013.966.121 1.376.384.354.238.64.563.83.944zM7.105 13.3v1.182c-.324-.33-.703-.6-1.12-.797-.463-.217-.967-.331-1.478-.335-.931-.022-1.827.354-2.462 1.035-.65.682-1.003 1.596-.98 2.538 0 1.08.358 1.933 1.073 2.558.648.599 1.497.933 2.38.938.557-.001 1.106-.138 1.599-.399.366-.185.7-.428.988-.72v1.182c-.749.55-1.654.844-2.583.84-1.268 0-2.324-.424-3.168-1.273-.834-.827-1.29-1.961-1.26-3.136 0-1.276.426-2.339 1.28-3.186.852-.847 1.921-1.272 3.205-1.273.913-.008 1.802.29 2.526.846zM11.424 12.592L12.375 12.592 12.375 20.264 14.739 20.264 14.739 21.164 11.424 21.164zM25.323 20.045c-1.771 1.697-4.565 1.697-6.336 0-.852-.827-1.32-1.973-1.291-3.161 0-1.268.433-2.324 1.298-3.168 1.77-1.688 4.553-1.688 6.322 0 .865.84 1.298 1.896 1.3 3.168.028 1.188-.44 2.334-1.293 3.161zm-.7-5.667c-.652-.658-1.54-1.029-2.467-1.029s-1.816.37-2.468 1.029c-1.355 1.396-1.355 3.616 0 5.012.653.658 1.541 1.028 2.468 1.028.926 0 1.815-.37 2.467-1.028 1.354-1.397 1.354-3.615 0-5.012zM31.884 12.592v5.255c0 .326 0 .578.02.759.025.229.086.452.18.662.103.257.269.485.481.662.83.65 1.997.65 2.827 0 .213-.178.378-.405.483-.662.093-.21.154-.433.18-.662.012-.18.019-.433.019-.759v-5.255h.95v5.513c0 .873-.18 1.559-.539 2.056-.273.366-.633.657-1.047.849-.929.41-1.988.41-2.917 0-.415-.192-.776-.484-1.049-.85-.36-.497-.539-1.182-.539-2.057v-5.511h.95zM41.805 21.164v-8.572h1.749c1.319 0 2.373.334 3.161 1.002.977.814 1.466 1.91 1.466 3.29.03 1.27-.524 2.483-1.504 3.29-.387.337-.837.595-1.324.759-.589.17-1.2.248-1.813.23h-1.735zm.952-7.674v6.774h.84c1.02 0 1.84-.258 2.456-.772.77-.653 1.156-1.523 1.156-2.608 0-1.027-.33-1.85-.99-2.468-.66-.619-1.533-.927-2.622-.926h-.84z" transform="translate(55 13) translate(35.56 5.6)"/>
            </g>
        </g>
    </g>
</svg>
