<svg xmlns="http://www.w3.org/2000/svg" width="24" height="24" viewBox="0 0 24 24">
    <defs>
        <filter id="prefix__a" width="102.7%" height="108.4%" x="-1.4%" y="-4.2%" filterUnits="objectBoundingBox">
            <feOffset dy="1" in="SourceAlpha" result="shadowOffsetOuter1"/>
            <feGaussianBlur in="shadowOffsetOuter1" result="shadowBlurOuter1" stdDeviation="2"/>
            <feColorMatrix in="shadowBlurOuter1" result="shadowMatrixOuter1" values="0 0 0 0 0.196078431 0 0 0 0 0.196078431 0 0 0 0 0.196078431 0 0 0 0.05 0"/>
            <feMerge>
                <feMergeNode in="shadowMatrixOuter1"/>
                <feMergeNode in="SourceGraphic"/>
            </feMerge>
        </filter>
    </defs>
    <g fill="#00A334" fill-rule="evenodd" filter="url(#prefix__a)" transform="translate(-42 -38)">
        <path d="M60.955 43c.853 0 1.545.696 1.545 1.556v10.888c0 .86-.692 1.556-1.545 1.556h-13.91c-.853 0-1.545-.696-1.545-1.556V44.556c0-.86.692-1.556 1.545-1.556h13.91zm0 1.556h-13.91v10.888h13.91V44.556zm-3.091 7v1.555H54v-1.555h3.864zm-8.037-4.512L53.742 50l-3.915 2.956-.927-1.245L51.167 50 48.9 48.289l.927-1.245z"/>
    </g>
</svg>
