<svg id="svg15" xmlns="http://www.w3.org/2000/svg" viewBox="0 0 500 500"><defs><style>.cls-1{fill:#0c3b7c;}.cls-1,.cls-2,.cls-3,.cls-4{fill-rule:evenodd;}.cls-2{fill:#00001b;}.cls-3{fill:#fff;}.cls-4{fill:#00aff1;}</style></defs><g id="Layer1000"><g id="Layer1002"><path id="path7" class="cls-1" d="M91.09,4.34H411c48.33,0,87.86,38.25,87.86,86.93V408.66c0,48.67-39.54,88.49-87.86,88.49H3.23V91.27C3.23,42.59,42.77,4.34,91.09,4.34Z"/><g id="Layer1003"><path id="path9" class="cls-2" d="M269.76,243.58C286,251,296.83,262.28,302,278.4c10.23,32.2,0,75.13-49.46,88.74a104.39,104.39,0,0,1-27.39,3.74c-27.4.09-54.81,0-82.22.12-3.9,0-5.14-.9-5.13-5q.19-105.45.12-210.91c0-13.73,10.4-25.3,23.66-25.39,23.65-.15,47.35-1.15,71,.49C251.65,131.53,269,138,282.05,153c21,24.16,18.26,63.56-5.69,84.82l-6.6,5.81Zm88.85,71.09a29.6,29.6,0,1,1-29.6,29.6A29.61,29.61,0,0,1,358.61,314.67ZM184.67,302.38c0-7.46-.08-14.92,0-22.38.13-10.26,5.3-15.31,15.53-15.33,8.88,0,17.76-.09,26.65,0,18.14.22,30.41,13.13,30.44,31.9,0,20.09-11.5,32.91-30.17,33.2-12.79.2-25.58-.07-38.37.11-3.21.05-4.3-.68-4.18-4.07.27-7.81.09-15.63.09-23.45Zm0-99.13c0-5.69,0-11.39,0-17.08,0-11.63,5-16.66,16.45-16.74q9.6-.06,19.21,0c17.41.06,27.73,9.9,28.37,27,.65,17.35-9.66,29.67-26.36,30.52-11.53.59-23.12,0-34.67.2-2.94,0-3-1.46-3-3.64.07-6.76,0-13.51,0-20.27Z"/><path id="path11" class="cls-3" d="M269.76,241.94c16.2,7.38,27.07,18.7,32.19,34.82,10.24,32.2,0,75.13-49.46,88.73a104,104,0,0,1-27.39,3.75c-27.4.09-54.81,0-82.22.11-3.9,0-5.14-.89-5.13-5q.19-105.45.12-210.9c0-13.73,10.4-25.31,23.66-25.39,23.65-.15,47.35-1.16,71,.49,19.15,1.33,36.53,7.8,49.55,22.76,21,24.15,18.26,63.56-5.69,84.82l-6.6,5.81Zm-85.09,58.8c0-7.46-.08-14.92,0-22.38.13-10.26,5.3-15.31,15.53-15.33,8.88,0,17.76-.1,26.65,0,18.14.22,30.41,13.13,30.44,31.91,0,20.09-11.5,32.91-30.17,33.19-12.79.2-25.58-.07-38.37.12-3.21,0-4.3-.68-4.18-4.08.27-7.8.09-15.63.09-23.44Zm0-99.14c0-5.69,0-11.38,0-17.07,0-11.63,5-16.67,16.45-16.74,6.41,0,12.81,0,19.21,0,17.41.07,27.73,9.9,28.37,27,.65,17.35-9.66,29.67-26.36,30.52-11.53.59-23.11.06-34.67.21-2.94,0-3-1.46-3-3.64.07-6.76,0-13.52,0-20.28Z"/><path id="path13" class="cls-4" d="M358.61,313A29.61,29.61,0,1,1,329,342.63,29.61,29.61,0,0,1,358.61,313Z"/></g></g></g></svg>