<svg id="svg15" xmlns="http://www.w3.org/2000/svg" viewBox="0 0 500 500"><defs><style>.cls-1{fill:#eb5569;}.cls-2{fill:#f58a97;}.cls-3{fill:#f07281;}</style></defs><path class="cls-1" d="M499.86,229.45c1.82,23.49-14.7,44.34-36.89,46.57-17,1.7-32.35-8-39.45-23.18l-20.13,1.77L388.19,262a11.45,11.45,0,0,0-6.35,8.81,134.51,134.51,0,0,1-7.67,29.61,11.42,11.42,0,0,0,.66,9.72l5.42,9.68,15.05,10.11a27.08,27.08,0,1,1-17.11,29L361.51,347.7,351,346.42a12.06,12.06,0,0,0-9.82,3.32,135.79,135.79,0,0,1-29.76,21.49,12,12,0,0,0-6.27,9.83l-1.33,21.27,6.61,26.21a33.63,33.63,0,1,1-32.58,8.37l-6.64-26.36L261,394.08a15,15,0,0,0-12.82-7h-.09a135.91,135.91,0,0,1-26.24-2.56A15,15,0,0,0,208,388.82l-13.54,14.29-15.16,31.45a27.08,27.08,0,1,1-30.39-14.4l15.25-31.65,3-21.25a11.3,11.3,0,0,0-4-10.34,136.17,136.17,0,0,1-30.67-35.16,11.26,11.26,0,0,0-9.55-5.38l-21.21-.21-23.23,7.31A37.87,37.87,0,1,1,67,291.86l24.64-7.76,18-12.83a9.26,9.26,0,0,0,3.84-8.34q-.45-5.43-.45-11a134.21,134.21,0,0,1,12.29-56.24,9.2,9.2,0,0,0-.1-7.89l-5.33-10.9L105.37,166a27.07,27.07,0,1,1,18.69-28l16,12.1L156.26,153a135.45,135.45,0,0,1,40.55-26l3.79-23-4.79-23.82c-14.17-3.65-25.68-14.51-28.78-29-4.37-20.46,9.7-40.39,31.42-44.5s42.87,9.13,47.23,29.59c3.28,15.31-3.77,30.32-16.63,38.63l4.52,22.46L244.68,115a4,4,0,0,0,3.36,1.86h0a134.17,134.17,0,0,1,69.6,19.37,3.94,3.94,0,0,0,3.67.2l17.4-8.06,20.3-22a27.08,27.08,0,1,1,24.69,22.83l-20.31,22L356.82,169a3.92,3.92,0,0,0,.51,3.67A134.28,134.28,0,0,1,376.14,209a11.56,11.56,0,0,0,7.77,7.46l16.51,4.62,21.46-1.9c5.26-15.17,18.4-26.64,34.53-28.26,22.19-2.23,41.65,15,43.45,38.5Z"/><circle class="cls-2" cx="248.06" cy="251.97" r="100.03"/><path class="cls-3" d="M178.53,252a100,100,0,0,1,84.78-98.88,100,100,0,1,0,0,197.75A100,100,0,0,1,178.53,252Z"/><circle class="cls-1" cx="79.76" cy="41.63" r="28.48"/><circle class="cls-1" cx="71.98" cy="417.11" r="18.81"/><circle class="cls-1" cx="417.42" cy="448.01" r="27.71"/><circle class="cls-1" cx="217.36" cy="224.38" r="25.84"/><circle class="cls-1" cx="238.1" cy="304.63" r="17.59"/><circle class="cls-1" cx="293.32" cy="251.97" r="14.77"/></svg>