<svg id="svg15" xmlns="http://www.w3.org/2000/svg" viewBox="0 0 500 500"><defs><style>.cls-1{fill:#d45044;}.cls-1,.cls-2,.cls-3,.cls-4,.cls-5{fill-rule:evenodd;}.cls-2{fill:#f7f5ec;}.cls-3{fill:#b7b6ad;}.cls-4{fill:#e7e3d6;}.cls-5{fill:#c03b2c;}</style></defs><g id="Layer1000"><path id="path2" class="cls-1" d="M236.05,213.78l-13-9.67-51.9-38.46c-25.81-19.14-52.33-38.56-78-57.83C84.56,101.36,75.9,95,67.2,88.58c-5.69-4.22-14.14-10.22-19.56-14.5-1.27-1-5.56-3.92-6.29-4.82h417.1a25.32,25.32,0,0,1-3.29,2.61c-1.06.75-2.14,1.54-3.23,2.35-10.71,7.89-22.28,16.16-32.67,24.09-4.38,3.33-8.69,6.31-13.07,9.63l-13.08,9.63c-4.44,3.16-8.75,6.43-13.08,9.62-8.72,6.44-17.47,12.87-26.16,19.26-24,17.62-47.9,35.53-71.9,53-9.81,7.14-19.66,14.7-29.48,21.72a21.56,21.56,0,0,1-3.33,2.3ZM55.68,430.88v-.21c-.35-2.68-.08-133.41-.09-134.49V165.5c0-.67,0-1.34,0-2,0-.26,0-.9,0-1.12l.28-.86,11.86,8.24c5.85,3.92,12.08,8.59,18,12.53,2,1.36,4,2.74,6,4.19,4,2.94,8.11,5.52,12.09,8.4s7.9,5.53,11.92,8.33,8,5.6,12.08,8.39l84.27,58.65c3.95,2.85,8.08,5.51,12.09,8.39,5.12,3.68,20.64,14,24.09,16.84,1.22.62.8.71,3.2-1l33.34-23c4.18-2.73,8-5.61,12.13-8.34,9.71-6.36,20.43-14.42,30.3-20.9,2-1.33,4-2.71,6.07-4.18,11.9-8.37,24.86-16.8,36.53-25.13,15.58-11.13,32.78-22.26,48.48-33.43L436.53,167c1.34-.89,5.23-3.76,6.26-4.22.38,10.35,0,21.42,0,31.85,0,13-.24,94.32.19,95.36l0-127.42,53.13-37.95c1.17-.83,2.46-1.81,3.67-2.57,0-6,.57-12.34-.41-18.06-1.26-7.25-4.23-14.58-9-20.15a47.86,47.86,0,0,0-11-9.25,38.84,38.84,0,0,0-5.1-2.47c-.92-.39-1.84-.74-2.74-1.05-7.53-2.64-16.74-2-24.7-2h-396c-9,0-12.77-.54-21.06,1.63a38.72,38.72,0,0,0-16.72,9.56l-.46.42-.46.43A36.19,36.19,0,0,0,6.2,88.56c-.54.82-1,1.59-1.42,2.37s-.73,1.59-1.19,2.58a36.36,36.36,0,0,0-2.76,8.37c-1.16,6.25-.78,15-.73,21.75V380.56c0,4.94-.35,10.54.28,15.08.86,6.15,2.89,10.85,6.07,16.19C9.94,417.67,14.54,421.32,20,425a49.21,49.21,0,0,0,5.61,2.86,2.19,2.19,0,0,0,.6.25l1.35.46c8.52,3.11,19,2.31,28.13,2.31Z"/><path id="path4" class="cls-2" d="M249.16,223.45a21.56,21.56,0,0,0,3.33-2.3c9.82-7,19.67-14.58,29.48-21.72,24-17.44,47.92-35.35,71.9-53,8.69-6.39,17.44-12.82,26.16-19.26,4.33-3.19,8.64-6.46,13.08-9.62L406.19,108c4.38-3.32,8.69-6.3,13.07-9.63,10.39-7.93,22-16.2,32.67-24.09,1.09-.81,2.17-1.6,3.23-2.35a25.32,25.32,0,0,0,3.29-2.61H41.35c.73.9,5,3.82,6.29,4.82,5.42,4.28,13.87,10.28,19.56,14.5,8.7,6.46,17.36,12.78,26,19.24,25.63,19.27,52.15,38.69,78,57.83L223,204.11l13,9.67Z"/><path id="path6" class="cls-3" d="M55.68,430.67l.22.06c0-.05.09-.19.12-.15s.09-.11.12-.14l5.76-4.08c6.06-4,12-8.5,18.11-12.62L104.17,397c8-5.73,16-11.06,24.14-16.82,15.91-11.32,32.36-22.22,48.32-33.6l18.11-12.61c1.93-1.38,4-2.85,6-4.2l48.38-33.56c1.09.32,4.89,3.26,6.16,4.1,6,4,12.1,8.6,18.12,12.6,4.08,2.72,8.07,5.6,12.08,8.4l84.7,58.87c2.11,1.5,4,2.78,6,4.21l12.08,8.4c2,1.34,4.11,2.81,6.05,4.2,4.57,3.28,47.87,33,48.2,33.71.39-.38.4.33.37-2.22L443,290c-.43-1-.19-82.39-.19-95.36,0-10.43.35-21.5,0-31.85-1,.46-4.92,3.33-6.26,4.22l-18.19,12.52c-15.7,11.17-32.9,22.3-48.48,33.43-11.67,8.33-24.63,16.76-36.53,25.13-2.08,1.47-4,2.85-6.07,4.18-9.88,6.48-20.59,14.54-30.3,20.9-4.16,2.73-7.95,5.61-12.14,8.34l-33.33,23c-2.4,1.67-2,1.58-3.21,1-7.87,5.61-16.1,11-24.06,16.52-4,2.78-8,5.46-12,8.25-9.84,6.92-20.1,13.68-29.95,20.58S162,354.59,152.05,361.58c-8,5.62-16,10.9-24,16.48l-30,20.57c-2.12,1.48-3.89,2.76-6,4.18L55.77,427.63l.1-266.12-.29.86c0,.22,0,.86,0,1.12,0,.67,0,1.34,0,2V296.18c0,1.08-.26,131.81.09,134.49Z"/><path id="path8" class="cls-4" d="M55.9,430.73l386.68-.08c-.33-.67-43.63-30.43-48.2-33.71-1.94-1.39-4-2.86-6.05-4.2l-12.08-8.4c-2-1.43-3.92-2.71-6-4.21l-84.7-58.87c-4-2.8-8-5.68-12.08-8.4-6-4-12.09-8.6-18.12-12.6-1.27-.84-5.07-3.78-6.16-4.1l-48.38,33.56c-2,1.35-4.11,2.82-6,4.2l-18.11,12.61c-16,11.38-32.41,22.28-48.32,33.6-8.09,5.76-16.14,11.09-24.14,16.82L80,413.74c-6.15,4.12-12.05,8.58-18.11,12.62l-5.76,4.08s-.1.18-.12.14-.08.1-.12.15Z"/><path id="path10" class="cls-4" d="M248.29,295.47c-3.45-2.83-19-13.16-24.09-16.84-4-2.88-8.14-5.54-12.09-8.39l-84.27-58.65c-4-2.79-8-5.55-12.08-8.39s-8-5.51-11.92-8.33-8-5.46-12.09-8.4c-2-1.45-4-2.83-6-4.19-5.89-3.94-12.12-8.61-18-12.53l-11.86-8.24-.1,266.12L92,402.81c2.16-1.42,3.93-2.7,6-4.18l30-20.57c8.06-5.58,16.06-10.86,24-16.48,9.91-7,20.27-13.8,30.22-20.76s20.11-13.66,29.95-20.58c4-2.79,8-5.47,12-8.25C232.18,306.44,240.41,301.08,248.29,295.47Z"/><path id="path12" class="cls-5" d="M443,290,443,428.43c0,2.55,0,1.84-.37,2.22l-386.68.08-.22-.06v.21H444.36c8.66,0,23.79-1.42,31.41-4a50.11,50.11,0,0,0,8.3-3.5c5.16-3.19,9.42-7.24,11.92-12.94l.09-.23c2.11-5.94,2.86-8.32,3.45-14.55l.47-85.25c0-15.82-.22-30.93-.22-46.75V122.08c-1.21.76-2.5,1.74-3.67,2.57L443,162.6Z"/></g></svg>