<svg id="svg15" xmlns="http://www.w3.org/2000/svg" viewBox="0 0 500 500"><defs><style>.cls-1{fill:#23a565;}.cls-1,.cls-2,.cls-4{fill-rule:evenodd;}.cls-2{fill:#8bd1b5;}.cls-3{fill:none;}.cls-4{fill:#fff;}</style></defs><path id="path2" class="cls-1" d="M92.88,7.34H312.59l119.3,121.25V467.28a25.45,25.45,0,0,1-25.38,25.38H92.88A25.45,25.45,0,0,1,67.5,467.28V32.72A25.45,25.45,0,0,1,92.88,7.34Z"/><path id="path4" class="cls-2" d="M431.89,128.59,312.59,7.34v96.19a25.13,25.13,0,0,0,25.05,25.06Z"/><path id="path6" class="cls-3" d="M331.39,127.05H432.5V231.4H331.39Z"/><path id="path10" class="cls-4" d="M145,230.6H353.87V407.79H145Zm21.53,126.13h73.92v30.63H166.55ZM258.43,251h73.92v30.63H258.43Zm0,105.7h73.92v30.63H258.43Zm0-52.85h73.92v30.63H258.43ZM166.55,251h73.92v30.63H166.55Zm0,52.85h73.92v30.63H166.55Z"/></svg>