<svg id="svg15" xmlns="http://www.w3.org/2000/svg" xmlns:xlink="http://www.w3.org/1999/xlink" viewBox="0 0 500 500"><defs><style>.cls-1{fill:url(#linear-gradient);}.cls-2{fill:#c8daea;}.cls-3{fill:#a9c9dd;}.cls-4{fill:url(#linear-gradient-2);}</style><linearGradient id="linear-gradient" x1="-3960.1" y1="255.85" x2="-3962.01" y2="260.3" gradientTransform="translate(247826.42 -15903.59) scale(62.5)" gradientUnits="userSpaceOnUse"><stop offset="0" stop-color="#37aee2"/><stop offset="1" stop-color="#1e96c8"/></linearGradient><linearGradient id="linear-gradient-2" x1="-2965.59" y1="601.48" x2="-2960.84" y2="609.07" gradientTransform="translate(31159.75 -6007.75) scale(10.42)" gradientUnits="userSpaceOnUse"><stop offset="0" stop-color="#eff7fc"/><stop offset="1" stop-color="#fff"/></linearGradient></defs><path id="path2995-1-0" class="cls-1" d="M485.64,250c0,132-105.45,238.83-235.64,238.83S14.36,382,14.36,250,119.81,11.17,250,11.17,485.64,118.05,485.64,250Z"/><path id="path2993" class="cls-2" d="M206.8,359.46c-7.66,0-6.28-3-9-10.35l-22.39-74.83,139-88,16.3,4.38-13.55,37.42Z"/><path id="path2989" class="cls-3" d="M206.8,359.46c5.89,0,8.44-2.78,11.78-6,5.11-5,70.69-69.66,70.69-69.66L249,273.88l-37.31,23.89-4.91,59.7Z"/><path id="path2991" class="cls-4" d="M210.73,298.56l95,71.05c10.8,6,18.65,3,21.4-10.15l38.68-184.69c3.93-16.12-6.08-23.29-16.49-18.51L122.36,245c-15.51,6.37-15.31,15.13-2.75,18.91l58.32,18.51,134.91-86.18c6.28-4,12.17-1.79,7.46,2.59Z"/></svg>