<svg id="Layer_1" data-name="Layer 1" xmlns="http://www.w3.org/2000/svg" viewBox="0 0 500 494.91"><defs><style>.cls-1{fill:#fedb41;}.cls-2,.cls-3{fill:#fea832;}.cls-2{opacity:0.43;}.cls-4{fill:#a3d4f7;}.cls-5{opacity:0.53;}.cls-6{fill:#d7f0ff;}</style></defs><circle class="cls-1" cx="287.05" cy="212.95" r="134.26"/><path class="cls-2" d="M286.26,82.79a134.09,134.09,0,0,0-110.34,57.76,134.26,134.26,0,0,1,203.68,173A134.25,134.25,0,0,0,286.26,82.79Z" transform="translate(0 -4.09)"/><path class="cls-3" d="M287.05,55.42a161.07,161.07,0,0,1,29.07,2.67c.13-1.87.22-3.76.22-5.67,0-26.69-29.29-48.33-29.29-48.33s-29.3,21.64-29.3,48.33c0,1.92.09,3.8.22,5.67A161.1,161.1,0,0,1,287.05,55.42Z" transform="translate(0 -4.09)"/><path class="cls-3" d="M287.05,378.68A162.9,162.9,0,0,0,316.12,376c.13,1.86.22,3.74.22,5.67,0,26.68-29.29,48.32-29.29,48.32s-29.29-21.63-29.29-48.32c0-1.93.09-3.81.22-5.67a162.9,162.9,0,0,0,29.07,2.67Z" transform="translate(0 -4.09)"/><path class="cls-3" d="M401.34,102.76A162.19,162.19,0,0,1,420,125.2c1.42-1.22,2.81-2.49,4.17-3.85,18.87-18.87,13.46-54.88,13.46-54.88s-36-5.41-54.89,13.46c-1.36,1.36-2.63,2.73-3.85,4.16A161.64,161.64,0,0,1,401.34,102.76Z" transform="translate(0 -4.09)"/><path class="cls-3" d="M172.76,331.34A161.6,161.6,0,0,0,195.2,350c-1.22,1.42-2.49,2.81-3.85,4.17-18.87,18.87-54.88,13.46-54.88,13.46s-5.42-36,13.46-54.89c1.36-1.36,2.73-2.63,4.16-3.85a161.64,161.64,0,0,0,18.67,22.45Z" transform="translate(0 -4.09)"/><path class="cls-3" d="M448.68,217.06A162.9,162.9,0,0,1,446,246.13c1.86.13,3.74.22,5.67.22,26.68,0,48.32-29.29,48.32-29.29s-21.64-29.29-48.32-29.29c-1.93,0-3.81.09-5.67.22a162.9,162.9,0,0,1,2.67,29.07Z" transform="translate(0 -4.09)"/><path class="cls-3" d="M125.42,217.06a161.07,161.07,0,0,0,2.67,29.07c-1.87.13-3.77.22-5.67.22-26.69,0-48.33-29.29-48.33-29.29s21.64-29.29,48.33-29.29c1.92,0,3.8.08,5.67.21A161.1,161.1,0,0,0,125.42,217.06Z" transform="translate(0 -4.09)"/><path class="cls-3" d="M401.34,331.34A162.27,162.27,0,0,1,378.89,350q1.83,2.13,3.85,4.17c18.88,18.87,54.89,13.46,54.89,13.46s5.41-36-13.46-54.89c-1.37-1.36-2.74-2.63-4.17-3.85A162.27,162.27,0,0,1,401.34,331.34Z" transform="translate(0 -4.09)"/><path class="cls-3" d="M172.76,102.76a161.55,161.55,0,0,0-18.67,22.44c-1.41-1.22-2.81-2.49-4.16-3.85-18.88-18.87-13.46-54.88-13.46-54.88s36-5.41,54.88,13.46c1.37,1.36,2.63,2.73,3.85,4.16A161,161,0,0,0,172.76,102.76Z" transform="translate(0 -4.09)"/><path class="cls-4" d="M399.06,312.12a93.47,93.47,0,0,0-18.5,1.85,76.31,76.31,0,0,0-106.87-54.25A101.85,101.85,0,1,0,82.22,329.24,84.9,84.9,0,0,0,84.77,499H399.06a93.44,93.44,0,0,0,0-186.88Z" transform="translate(0 -4.09)"/><g class="cls-5"><path class="cls-6" d="M135.68,217.64a101.85,101.85,0,0,1,130.49,61A76.31,76.31,0,0,1,373,332.87a93.48,93.48,0,0,1,108,118.32A93.44,93.44,0,0,0,381,314a76.31,76.31,0,0,0-106.87-54.25,101.84,101.84,0,0,0-193,4.73A101.44,101.44,0,0,1,135.68,217.64Z" transform="translate(0 -4.09)"/></g></svg>