<svg id="svg15" xmlns="http://www.w3.org/2000/svg" viewBox="0 0 500 500"><defs><style>.cls-1{fill:#009035;fill-rule:evenodd;}</style></defs><g id="Layer1000"><path id="path4" class="cls-1" d="M249.07,6.32C381.57,6.32,489,113.74,489,246.25S381.57,486.18,249.07,486.18a238.84,238.84,0,0,1-113.8-28.66l-90.61,38.2,23.56-91.81A239,239,0,0,1,9.14,246.25C9.14,113.74,116.56,6.32,249.07,6.32Zm-79.39,108c3.59.44,7.55,2.47,9.26,5.67,9.89,18.42,17.77,37.94,24.72,57.66,1.71,4.87,3.22,10.78,1,15.45-5.06,10.74-15.14,18.37-21.63,28.32-1.34,2.05-2.83,5.11-1.54,7.2,25.67,41.93,60.33,72.13,104,90.11,2.77,1.14,6.59,0,8.75-2.06,9.87-9.43,16.15-22.24,26.26-31.41,3.18-2.88,8.31-5,12.36-3.6,21.56,7.63,42.91,16.93,61.78,29.86,4.22,2.89,2.78,9.88,3.61,14.93,5.68,34.78-38.95,59.55-69,58.18-49-2.23-104.92-33.78-148.26-74.69-42.2-39.82-72.53-88.51-73.13-127.65-.35-23.17,10.86-49.85,29.47-62.7C145.72,113.8,161,113.25,169.68,114.31Z"/></g></svg>