<svg id="svg15" xmlns="http://www.w3.org/2000/svg" viewBox="0 0 500 500"><defs><style>.cls-1{fill:#782e99;}.cls-2{fill:#fff;fill-rule:evenodd;}</style></defs><g id="g10"><g id="g12"><path id="path14" class="cls-1" d="M488.69,254c0,131.84-106.81,238.67-238.69,238.67S11.31,385.83,11.31,254,118.19,15.3,250,15.3,488.69,122.18,488.69,254"/><path id="path16" class="cls-2" d="M393.51,177.38c0-1.09-.25-1.36-1.34-1.32-6.34.1-12.68.12-19.06.23q-44.61.6-89.2,1.25c-6.16.07-12.32.27-18.48.36-1,0-1.23.31-1.23,1.27.08,5.85.08,11.78,0,17.63,0,.76.15,1.16,1.05,1.19,3.77.15,7.54.44,11.31.57,11.34.43,22.64.79,33.95,1.23.47,0,.94.07,1.7.12L310,201.83l-58.69,50.08c-1.67,1.39-1.67,1.39-3-.28q-25.38-31.41-50.76-62.77c-4-4.83-7.87-9.69-12-14.69a4.7,4.7,0,0,1,.8-.16c6.37-.56,12.83-1.2,19.31-1.72,6.92-.53,13.95-1,20.87-1.49,1,0,1.3-.31,1.34-1.32.36-6,.87-11.92,1.67-17.84.18-1.13,0-1.4-1.16-1.4q-75.87.06-151.81,0c-1,0-1.38.24-1.38,1.36.07,5.72,0,11.48,0,17.25,0,1.88,0,1.88,2,2Q98.48,172.4,120,174a2.92,2.92,0,0,1,2.28,1.16q18.6,22.63,37.18,45.27Q184,250.24,208.55,280a3.53,3.53,0,0,1,.8,2.21c-.07,6.55,0,13.08,0,19.6v32.86c0,.69.07,1.32-1,1.37-7.1.55-14.28,1.07-21.38,1.64-8.62.63-17.21,1.36-25.8,2-1.08.07-1.45.4-1.45,1.52,0,5,0,9.87,0,14.8,0,2-.25,1.76,1.7,1.76H310.58a1.73,1.73,0,0,1,.65,0c.8.05,1.16-.17,1.16-1.07q-.11-7.94,0-15.89c0-.76-.29-1-1-1-2.32-.15-4.57-.33-6.82-.44-13.44-.63-26.81-1.12-40.21-1.39-1.38-.06-1.59-.46-1.52-1.69q.75-28.1,1.37-56.21a2.11,2.11,0,0,1,.87-1.72c6.56-5.8,13.15-11.63,19.67-17.45q31.8-28.4,63.59-56.81a3.49,3.49,0,0,1,2.18-.94c3-.13,6.08-.36,9.13-.6,10.87-.78,21.73-1.54,32.6-2.53,1-.11,1.27-.4,1.27-1.4q-.11-10.58,0-21.21"/><path id="path18" class="cls-2" d="M424.81,223.41c-.39,1.2-.61,2.45-.9,3.68-3.19,13.09-6.38,26.26-9.5,39.4l-10.65,44.25c-.07.37-.21.44-.5.4-5.25-.56-10.47-1.12-15.73-1.66-.36,0-.72-.09-1.09-.09s-.43-.11-.43-.4c.07-1.83.15-3.68.15-5.53s.07-3.4.14-5.12c.14-5,.22-10.1.29-15.17q.17-8.24.33-16.54c.14-5.48.25-11,.4-16.52s.14-11,.29-16.54c.1-3.91.21-7.8.29-11.68,0-.4.07-.49.43-.49,3.22.2,6.45.33,9.68.49l6,.31,11.38.58c2.53.1,5.07.23,7.61.37.61,0,1.23,0,1.84.06v.2"/><path id="path20" class="cls-2" d="M394.93,341.05c-3.34,0-6.67,0-10,0-.43,0-.57-.09-.61-.52-.25-3.19-.62-6.36-.91-9.49s-.54-6.11-.87-9.12c0-.32.15-.32.36-.29l5.15.4c2.36.2,4.71.36,7.06.56,2.72.24,5.48.45,8.23.65.58,0,1.16.11,1.74.15.36,0,.43.13.43.41v16.78c0,.44-.18.47-.47.47-3.37,0-6.77,0-10.1,0"/></g></g></svg>